<?xml version="1.0" encoding="utf-8"?>
<!-- Generator: Adobe Illustrator 22.0.1, SVG Export Plug-In . SVG Version: 6.00 Build 0)  -->
<svg version="1.1" id="Layer_1" xmlns="http://www.w3.org/2000/svg" xmlns:xlink="http://www.w3.org/1999/xlink" x="0px" y="0px"
	 viewBox="0 0 91 91" style="enable-background:new 0 0 91 91;" xml:space="preserve">
<style type="text/css">
	.st0{fill:#FF0000;}
</style>
<path class="st0" d="M65.9,4.9C59.6,1.6,52.5,0.1,45.4,0C23.1,0.4,3.1,16.9,0.4,39.5c-2.7,23,11.9,44.3,34.4,50.1
	c22.2,5.7,44.8-7.3,53.2-28C96.6,40.1,85.9,15.4,65.9,4.9z M69.6,48.7c0,0.9-0.7,1.6-1.6,1.6c-15.1,0-30.1,0-45.2,0
	c-0.5,0-0.8-0.2-1.1-0.4c0,0,0,0,0,0c0,0,0,0,0,0c-0.3-0.3-0.4-0.6-0.4-1.1c0-2.2,0-4.3,0-6.5c0-0.9,0.7-1.6,1.6-1.6
	c15.1,0,30.1,0,45.2,0c0.9,0,1.6,0.7,1.6,1.6C69.6,44.4,69.6,46.5,69.6,48.7z"/>
</svg>
