<?xml version="1.0" encoding="utf-8"?>
<!-- Generator: Adobe Illustrator 22.0.1, SVG Export Plug-In . SVG Version: 6.00 Build 0)  -->
<svg version="1.1" id="Layer_1" xmlns="http://www.w3.org/2000/svg" xmlns:xlink="http://www.w3.org/1999/xlink" x="0px" y="0px"
	 viewBox="0 0 91 91.1" style="enable-background:new 0 0 91 91.1;" xml:space="preserve">
<style type="text/css">
	.st0{fill:none;}
	.st1{fill:#FF6700;}
</style>
<g>
	<g>
		<path class="st0" d="M45.5,32.2c-7.4,0-13.5,6-13.5,13.5c0,7.4,6,13.5,13.5,13.5S59,53,59,45.6C59,38.2,52.9,32.2,45.5,32.2z"/>
		<path class="st1" d="M45.5,0.6c-24.8,0-45,20.2-45,45c0,24.8,20.2,45,45,45s45-20.2,45-45C90.5,20.8,70.3,0.6,45.5,0.6z
			 M45.5,70.6c-13.8,0-25-11.2-25-25c0-13.8,11.2-25,25-25s25,11.2,25,25C70.5,59.4,59.3,70.6,45.5,70.6z"/>
	</g>
</g>
</svg>
